# xmcd CD database file
# Copyright (C) 1997 Ti Kan
# 
# Track frame offsets:
#     182
#     13660
#     24742
#     40185
#     51685
#     64150
#     79125
#     93467
#     104575
#     118657
#     133610
#     144610
#     156155
#     168327
#     180005
#     193630
# 
# Disc length: 2757 seconds
# 
# Revision: 1
# Processed by: cddbd v1.4b41PL1 Copyright (c) Steve Scherf et al.
# Submitted via: DiscPlay 4.0.4
# 
DISCID=dd0ac310
DTITLE=Glen Cambell - Glen Cambell's All Time Favorites
DYEAR=1900
DGENRE=
TTITLE0=Gentle On My Mind
TTITLE1=It's Only Make Believe
TTITLE2=Bridge Over Troubled Water
TTITLE3=Dream Baby
TTITLE4=By The Time I Get To Phoenix
TTITLE5=Houston (I'm Comin' To See You)
TTITLE6=A Classical Gas
TTITLE7=I'm So Lonesome I Could Cry
TTITLE8=Wichita Lineman
TTITLE9=Your Cheatin' Heart
TTITLE10=Try A Little Kindness
TTITLE11=(Sittin' On The) Dock Of The Bay
TTITLE12=Galveston
TTITLE13=Dreams Of The Everday Housewife
TTITLE14=Honey, Come Back
TTITLE15=Where's The Playground Susie
EXTD=
EXTT0=
EXTT1=
EXTT2=
EXTT3=
EXTT4=
EXTT5=
EXTT6=
EXTT7=
EXTT8=
EXTT9=
EXTT10=
EXTT11=
EXTT12=
EXTT13=
EXTT14=
EXTT15=
PLAYORDER=
